<?xml version="1.0" encoding="utf-8"?>
<!-- Generator: Adobe Illustrator 19.0.0, SVG Export Plug-In . SVG Version: 6.00 Build 0)  -->
<svg version="1.1" id="Layer_1" xmlns="http://www.w3.org/2000/svg" xmlns:xlink="http://www.w3.org/1999/xlink" x="0px" y="0px"
	 viewBox="0 0 235.8 113" style="enable-background:new 0 0 235.8 113;" preserveAspectRatio="none" xml:space="preserve">
<style type="text/css">
	.st0{fill: #cededd;}
</style>
<g id="XMLID_5_">
	<polygon id="XMLID_57_" class="st0" points="2.8,2.8 196.8,2.8 231.8,56.8 196.8,110.8 2.8,110.8 	"/>
	<g id="XMLID_52_">
		<path id="XMLID_56_" class="st0" d="M2.8,5.3c21.8,0,43.7,0,65.5,0c34.8,0,69.6,0,104.5,0c8,0,16,0,24,0c-0.7-0.4-1.4-0.8-2.2-1.2
			c11.7,18,23.3,36,35,54c0-0.8,0-1.7,0-2.5c-11.7,18-23.3,36-35,54c0.7-0.4,1.4-0.8,2.2-1.2c-21.8,0-43.7,0-65.5,0
			c-34.8,0-69.6,0-104.5,0c-8,0-16,0-24,0c0.8,0.8,1.7,1.7,2.5,2.5c0-31.5,0-62.9,0-94.4c0-4.5,0-9.1,0-13.6c0-3.2-5-3.2-5,0
			c0,31.5,0,62.9,0,94.4c0,4.5,0,9.1,0,13.6c0,1.4,1.1,2.5,2.5,2.5c34.8,0,69.7,0,104.5,0c22.4,0,44.8,0,67.2,0c6.3,0,12.6,0,18.9,0
			c3.4,0,4.9-0.1,6.9-3.2c11.3-17.4,22.5-34.7,33.8-52.1c0.5-0.7,0.5-1.8,0-2.5c-10.4-16-20.8-32-31.1-48.1c-2-3.1-3.3-7-7.3-7.2
			c-5-0.2-10.1,0-15.1,0c-45.6,0-91.2,0-136.8,0c-13.6,0-27.2,0-40.8,0C-0.5,0.3-0.5,5.3,2.8,5.3z"/>
	</g>
</g>
</svg>

